# xmcd CD database file
#
# Track frame offsets:
#	150
#	18126
#	47093
#	71910
#	98360
#	125341
#	149920
#	183980
#	206962
#	228384
#
# Disc length: 3394 seconds
#
# Revision: 0
# Processed by: cddbd v1.5.2PL0 Copyright (c) Steve Scherf et al.
# Submitted via: CDex 1.70beta2
#
DISCID=8f0d400a
DTITLE=Grover Washington, Jr. - Just the Two of Us and Other Hits
DYEAR=2007
DGENRE=Jazz
TTITLE0=Just the Two of Us
TTITLE1=Be Mine (Tonight)
TTITLE2=Tell Me About It Now
TTITLE3=Let It Flow
TTITLE4=The Best Is Yet To Come
TTITLE5=In the Name of Love
TTITLE6=Winelight
TTITLE7=Jamming
TTITLE8=East River Drive
TTITLE9=Inside Moves
EXTD=YEAR: 2007
EXTT0=
EXTT1=
EXTT2=
EXTT3=
EXTT4=
EXTT5=
EXTT6=
EXTT7=
EXTT8=
EXTT9=
PLAYORDER=
